<mxfile host="app.diagrams.net" modified="2021-04-13T14:52:52.919Z" agent="5.0 (Macintosh; Intel Mac OS X 11_2_3) AppleWebKit/537.36 (KHTML, like Gecko) Chrome/89.0.4389.114 Safari/537.36" etag="gTUXikWzkjvmKXStFEO0" version="14.5.10" type="github">
  <diagram id="8pRFNhPOjXXeK9Ngz3WG" name="Page-1">
    <mxGraphModel dx="1506" dy="614" grid="1" gridSize="10" guides="1" tooltips="1" connect="1" arrows="1" fold="1" page="0" pageScale="1" pageWidth="827" pageHeight="1169" math="0" shadow="0">
      <root>
        <mxCell id="0" />
        <mxCell id="1" parent="0" />
        <mxCell id="OcM7632NF5nK3PE19l2z-1" value="&lt;font style=&quot;font-size: 12px&quot;&gt;&lt;b&gt;&amp;nbsp; &amp;lt;sig&amp;gt;&amp;nbsp; &amp;nbsp; &amp;nbsp; &amp;nbsp; &amp;nbsp; &amp;lt;pubKey&amp;gt;&amp;nbsp; &amp;nbsp; &amp;nbsp; &amp;nbsp; &amp;nbsp; OP_DUP&amp;nbsp; &amp;nbsp; &amp;nbsp; &amp;nbsp; &amp;nbsp; OP_HASH160&amp;nbsp; &amp;nbsp; &amp;nbsp; &amp;nbsp; &amp;nbsp; &amp;nbsp; &amp;nbsp; &amp;nbsp;&amp;lt;pubKeyHash?&amp;gt;&amp;nbsp; &amp;nbsp; &amp;nbsp; &amp;nbsp; &amp;nbsp; &amp;nbsp; &amp;nbsp; &amp;lt;OP_EQUALVERIFY&amp;gt;&amp;nbsp; &amp;nbsp; &amp;nbsp; &amp;nbsp; &amp;nbsp; OP_CHECKSIG&lt;/b&gt;&lt;/font&gt;" style="rounded=0;whiteSpace=wrap;html=1;align=left;" vertex="1" parent="1">
          <mxGeometry x="-40" y="380" width="770" height="30" as="geometry" />
        </mxCell>
        <mxCell id="OcM7632NF5nK3PE19l2z-2" value="&lt;b&gt;&amp;lt;sig&amp;gt;&lt;/b&gt;" style="rounded=0;whiteSpace=wrap;html=1;" vertex="1" parent="1">
          <mxGeometry x="-40" y="340" width="50" height="30" as="geometry" />
        </mxCell>
        <mxCell id="OcM7632NF5nK3PE19l2z-5" value="&lt;b&gt;&amp;lt;sig&amp;gt;&lt;/b&gt;" style="rounded=0;whiteSpace=wrap;html=1;" vertex="1" parent="1">
          <mxGeometry x="30" y="340" width="70" height="30" as="geometry" />
        </mxCell>
        <mxCell id="OcM7632NF5nK3PE19l2z-6" value="&lt;b&gt;&amp;lt;pubKey&amp;gt;&lt;/b&gt;" style="rounded=0;whiteSpace=wrap;html=1;" vertex="1" parent="1">
          <mxGeometry x="30" y="310" width="70" height="30" as="geometry" />
        </mxCell>
        <mxCell id="OcM7632NF5nK3PE19l2z-11" value="&lt;b&gt;&amp;lt;sig&amp;gt;&lt;/b&gt;" style="rounded=0;whiteSpace=wrap;html=1;" vertex="1" parent="1">
          <mxGeometry x="120" y="340" width="70" height="30" as="geometry" />
        </mxCell>
        <mxCell id="OcM7632NF5nK3PE19l2z-12" value="&lt;b&gt;&amp;lt;pubKey&amp;gt;&lt;/b&gt;" style="rounded=0;whiteSpace=wrap;html=1;" vertex="1" parent="1">
          <mxGeometry x="120" y="310" width="70" height="30" as="geometry" />
        </mxCell>
        <mxCell id="OcM7632NF5nK3PE19l2z-14" value="&lt;b&gt;&amp;lt;sig&amp;gt;&lt;/b&gt;" style="rounded=0;whiteSpace=wrap;html=1;" vertex="1" parent="1">
          <mxGeometry x="210" y="340" width="100" height="30" as="geometry" />
        </mxCell>
        <mxCell id="OcM7632NF5nK3PE19l2z-15" value="&lt;b&gt;&amp;lt;pubKey&amp;gt;&lt;/b&gt;" style="rounded=0;whiteSpace=wrap;html=1;" vertex="1" parent="1">
          <mxGeometry x="210" y="310" width="100" height="30" as="geometry" />
        </mxCell>
        <mxCell id="OcM7632NF5nK3PE19l2z-18" value="&lt;b&gt;&amp;lt;pubKeyHash&amp;gt;&lt;/b&gt;" style="rounded=0;whiteSpace=wrap;html=1;" vertex="1" parent="1">
          <mxGeometry x="210" y="280" width="100" height="30" as="geometry" />
        </mxCell>
        <mxCell id="OcM7632NF5nK3PE19l2z-20" value="&lt;b&gt;&amp;lt;sig&amp;gt;&lt;/b&gt;" style="rounded=0;whiteSpace=wrap;html=1;" vertex="1" parent="1">
          <mxGeometry x="320" y="340" width="130" height="30" as="geometry" />
        </mxCell>
        <mxCell id="OcM7632NF5nK3PE19l2z-21" value="&lt;b&gt;&amp;lt;pubKey&amp;gt;&lt;/b&gt;" style="rounded=0;whiteSpace=wrap;html=1;" vertex="1" parent="1">
          <mxGeometry x="320" y="310" width="130" height="30" as="geometry" />
        </mxCell>
        <mxCell id="OcM7632NF5nK3PE19l2z-22" value="&lt;b&gt;&amp;lt;pubKeyHash&amp;gt;&lt;/b&gt;" style="rounded=0;whiteSpace=wrap;html=1;" vertex="1" parent="1">
          <mxGeometry x="320" y="280" width="130" height="30" as="geometry" />
        </mxCell>
        <mxCell id="OcM7632NF5nK3PE19l2z-23" value="&lt;b&gt;&amp;lt;pubKeyHash?&amp;gt;&lt;/b&gt;" style="rounded=0;whiteSpace=wrap;html=1;" vertex="1" parent="1">
          <mxGeometry x="320" y="250" width="130" height="30" as="geometry" />
        </mxCell>
        <mxCell id="OcM7632NF5nK3PE19l2z-24" value="&lt;b&gt;&amp;lt;pubKey&amp;gt;&lt;/b&gt;" style="rounded=0;whiteSpace=wrap;html=1;" vertex="1" parent="1">
          <mxGeometry x="120" y="280" width="70" height="30" as="geometry" />
        </mxCell>
        <mxCell id="OcM7632NF5nK3PE19l2z-25" value="&lt;b&gt;&amp;lt;sig&amp;gt;&lt;/b&gt;" style="rounded=0;whiteSpace=wrap;html=1;" vertex="1" parent="1">
          <mxGeometry x="500" y="340" width="70" height="30" as="geometry" />
        </mxCell>
        <mxCell id="OcM7632NF5nK3PE19l2z-26" value="&lt;b&gt;&amp;lt;pubKey&amp;gt;&lt;/b&gt;" style="rounded=0;whiteSpace=wrap;html=1;" vertex="1" parent="1">
          <mxGeometry x="500" y="310" width="70" height="30" as="geometry" />
        </mxCell>
        <mxCell id="OcM7632NF5nK3PE19l2z-29" value="&lt;b&gt;true&lt;/b&gt;" style="rounded=0;whiteSpace=wrap;html=1;" vertex="1" parent="1">
          <mxGeometry x="630" y="340" width="100" height="30" as="geometry" />
        </mxCell>
      </root>
    </mxGraphModel>
  </diagram>
</mxfile>
